<svg width="75" height="75" viewBox="0 0 75 75" fill="none" xmlns="http://www.w3.org/2000/svg">
<path id="Vector" d="M39.7363 0.00197598C39.4838 -0.0112537 39.2323 0.0421265 39.0069 0.156769C38.7815 0.271412 38.5902 0.443292 38.4521 0.655193C34.7364 6.2743 34.6282 11.4387 34.6282 11.5145C34.6299 11.9441 34.7274 12.368 34.9137 12.7551C35.0999 13.1423 35.3702 13.483 35.7048 13.7523C36.0394 14.0217 36.4298 14.213 36.8477 14.3122C37.2656 14.4114 37.7003 14.4161 38.1202 14.3258C38.7756 14.1688 39.3582 13.7936 39.7724 13.2618C40.1867 12.73 40.408 12.0731 40.4001 11.399C40.4139 11.0041 40.5086 10.6162 40.6783 10.2594C40.848 9.90257 41.0891 9.5844 41.3867 9.32457C41.6843 9.06475 42.032 8.86881 42.4084 8.74887C42.7847 8.62894 43.1817 8.58757 43.5746 8.62733C44.2989 8.71144 44.966 9.06212 45.4461 9.61112C45.9262 10.1601 46.1849 10.8682 46.172 11.5975C46.1591 13.8946 45.2345 16.0926 43.6017 17.7078C41.9689 19.323 39.7617 20.2231 37.4655 20.2102C35.1693 20.1973 32.9722 19.2723 31.3577 17.6389C29.7432 16.0054 28.8434 13.7972 28.8563 11.5C28.8563 11.2727 28.8888 7.60961 30.8188 2.8386C30.9165 2.59446 30.9457 2.32824 30.9033 2.0687C30.8608 1.80915 30.7483 1.56615 30.5779 1.36592C30.4074 1.16568 30.1855 1.01584 29.9362 0.93256C29.6868 0.849282 29.4195 0.835735 29.163 0.893382C20.6597 2.84742 13.1013 7.70079 7.78416 14.6209C2.46706 21.541 -0.277209 30.0965 0.0221373 38.8197C0.718371 58.6904 17.0348 74.6708 36.9081 74.9956C46.7117 75.1458 56.1845 71.4507 63.2988 64.7011C70.4131 57.9516 74.6036 48.684 74.9733 38.8821C75.343 29.0803 71.8624 19.5232 65.2766 12.2566C58.6909 4.9899 49.5233 0.591183 39.7363 0.00197598ZM20.1985 37.4663C20.1985 36.6098 20.4524 35.7725 20.928 35.0603C21.4037 34.3481 22.0798 33.793 22.8708 33.4652C23.6618 33.1375 24.5322 33.0517 25.3719 33.2188C26.2117 33.3859 26.983 33.7984 27.5884 34.404C28.1938 35.0097 28.6061 35.7813 28.7731 36.6214C28.9402 37.4615 28.8545 38.3323 28.5268 39.1236C28.1992 39.9149 27.6443 40.5913 26.9324 41.0672C26.2205 41.543 25.3836 41.797 24.5274 41.797C23.3793 41.797 22.2782 41.3408 21.4664 40.5286C20.6546 39.7164 20.1985 38.6149 20.1985 37.4663ZM49.1553 57.2324C45.6628 59.4105 41.6297 60.5652 37.5142 60.5652C33.3986 60.5652 29.3655 59.4105 25.873 57.2324C25.2253 56.8237 24.7664 56.1743 24.5972 55.4272C24.4281 54.68 24.5626 53.8962 24.9711 53.2482C25.3797 52.6002 26.0288 52.1411 26.7756 51.9719C27.5225 51.8027 28.306 51.9372 28.9537 52.3459C31.5241 53.9419 34.489 54.7875 37.5142 54.7875C40.5393 54.7875 43.5043 53.9419 46.0746 52.3459C46.3953 52.1436 46.7527 52.0064 47.1264 51.9422C47.5002 51.878 47.8829 51.8881 48.2527 51.9719C48.6225 52.0557 48.9722 52.2115 49.2818 52.4305C49.5914 52.6495 49.8549 52.9273 50.0572 53.2482C50.2595 53.569 50.3966 53.9266 50.4608 54.3005C50.5249 54.6743 50.5148 55.0572 50.4311 55.4272C50.3473 55.7971 50.1916 56.147 49.9727 56.4567C49.7538 56.7665 49.4761 57.0301 49.1553 57.2324ZM50.5009 41.797C49.6447 41.797 48.8078 41.543 48.0959 41.0672C47.384 40.5913 46.8292 39.9149 46.5015 39.1236C46.1739 38.3323 46.0881 37.4615 46.2552 36.6214C46.4222 35.7813 46.8345 35.0097 47.4399 34.404C48.0453 33.7984 48.8167 33.3859 49.6564 33.2188C50.4961 33.0517 51.3665 33.1375 52.1575 33.4652C52.9485 33.793 53.6246 34.3481 54.1003 35.0603C54.5759 35.7725 54.8298 36.6098 54.8298 37.4663C54.8298 38.6149 54.3737 39.7164 53.5619 40.5286C52.7501 41.3408 51.649 41.797 50.5009 41.797Z" fill="black"/>
</svg>
