<svg width="92" height="90" viewBox="0 0 92 90" fill="none" xmlns="http://www.w3.org/2000/svg">
<g clip-path="url(#clip0_3002_76)">
<path d="M61.1791 25.9504V6.59974H61.3671C63.23 6.59974 64.7403 5.12228 64.7403 3.29987C64.7403 1.47746 63.23 0 61.3671 0H57.8059H34.1944H30.6332C28.7703 0 27.26 1.47746 27.26 3.29987C27.26 5.12228 28.7703 6.59974 30.6332 6.59974H30.8212V25.9504C24.9502 27.4428 20.6154 32.6621 20.6154 38.8723V72.7833C20.6154 79.0229 24.9909 84.2613 30.9037 85.7258V86.8466C30.9037 88.5852 32.3497 90 34.1271 90C35.9041 90 37.3501 88.5852 37.3501 86.8466V86.1348H54.6501V86.8466C54.6501 88.5852 56.0963 90 57.8731 90C59.6501 90 61.0965 88.5852 61.0965 86.8466V85.7258C67.0093 84.2617 71.3848 79.0229 71.3848 72.7833V38.8725C71.3848 32.6621 67.0496 27.4428 61.1791 25.9504ZM54.4327 6.59974V25.5214H37.5676V6.59974H54.4327ZM58.2187 41.9686H33.7815C32.1257 41.9686 30.7834 40.6553 30.7834 39.0355C30.7834 37.4155 32.1257 36.1023 33.7815 36.1023H58.2187C59.8745 36.1023 61.2169 37.4157 61.2169 39.0355C61.2169 40.6553 59.8745 41.9686 58.2187 41.9686Z" fill="black"/>
</g>
<defs>
<clipPath id="clip0_3002_76">
<rect width="92" height="90" fill="white"/>
</clipPath>
</defs>
</svg>
